<svg preserveAspectRatio="none" width="100%" height="100%" overflow="visible" style="display: block;" viewBox="0 0 36.5005 39.0447" fill="none" xmlns="http://www.w3.org/2000/svg">
<path id="Icon" d="M13.6671 32.0447C5.33381 34.5447 5.33381 27.878 2.00047 27.0447M25.3338 37.0447V30.5947C25.3963 29.7999 25.289 29.001 25.0188 28.251C24.7487 27.501 24.322 26.817 23.7671 26.2447C29.0005 25.6613 34.5005 23.678 34.5005 14.578C34.5 12.251 33.605 10.0133 32.0005 8.32799C32.7602 6.29217 32.7065 4.0419 31.8505 2.04466C31.8505 2.04466 29.8838 1.46132 25.3338 4.51132C21.5138 3.47603 17.4871 3.47603 13.6671 4.51132C9.11714 1.46132 7.15047 2.04466 7.15047 2.04466C6.29443 4.0419 6.24071 6.29217 7.00047 8.32799C5.38402 10.0258 4.48801 12.2838 4.50047 14.628C4.50047 23.6613 10.0005 25.6447 15.2338 26.2947C14.6855 26.8613 14.2626 27.537 13.9927 28.2779C13.7227 29.0187 13.6118 29.8081 13.6671 30.5947V37.0447" stroke="var(--stroke-0, white)" stroke-width="4" stroke-linecap="round" stroke-linejoin="round"/>
</svg>
